<?xml version="1.0" standalone="no"?>
<!DOCTYPE svg PUBLIC "-//W3C//DTD SVG 20010904//EN"
 "http://www.w3.org/TR/2001/REC-SVG-20010904/DTD/svg10.dtd">
<svg version="1.0" xmlns="http://www.w3.org/2000/svg"
 width="512.000000pt" height="512.000000pt" viewBox="0 0 512.000000 512.000000"
 preserveAspectRatio="xMidYMid meet">

<g transform="translate(0.000000,512.000000) scale(0.100000,-0.100000)"
fill="#000000" stroke="none">
<path d="M2400 5109 c-771 -50 -1467 -513 -1820 -1212 -158 -313 -231 -626
-232 -987 -1 -497 142 -931 439 -1334 57 -77 236 -262 747 -774 369 -370 695
-689 725 -709 89 -60 178 -85 301 -86 89 -1 116 2 176 24 39 14 95 42 125 62
85 56 1370 1352 1456 1467 216 291 347 583 412 920 212 1092 -419 2174 -1472
2525 -151 50 -332 89 -491 104 -119 12 -190 12 -366 0z m230 -1719 c300 -48
488 -359 390 -644 -65 -191 -232 -316 -440 -333 -274 -21 -520 212 -520 492 0
219 157 422 371 479 66 18 114 19 199 6z"/>
</g>
</svg>
