<?xml version="1.0" standalone="no"?>
<!DOCTYPE svg PUBLIC "-//W3C//DTD SVG 20010904//EN"
 "http://www.w3.org/TR/2001/REC-SVG-20010904/DTD/svg10.dtd">
<svg version="1.0" xmlns="http://www.w3.org/2000/svg"
 width="512.000000pt" height="512.000000pt" viewBox="0 0 512.000000 512.000000"
 preserveAspectRatio="xMidYMid meet">

<g transform="translate(0.000000,512.000000) scale(0.100000,-0.100000)"
fill="#000000" stroke="none">
<path d="M2385 5114 c-657 -69 -1214 -399 -1571 -930 -84 -125 -202 -367 -249
-508 -200 -608 -107 -1291 248 -1821 123 -184 346 -415 518 -537 112 -80 275
-173 379 -218 41 -18 82 -39 91 -49 9 -9 160 -240 334 -514 280 -438 323 -500
356 -518 48 -24 90 -24 138 0 33 18 76 80 356 518 174 274 325 505 334 515 9
9 55 33 102 53 196 83 411 229 587 400 224 217 371 428 486 698 326 766 160
1664 -419 2266 -320 334 -714 543 -1170 622 -116 20 -420 33 -520 23z m-449
-1209 c14 -9 34 -35 45 -58 17 -38 19 -70 19 -359 l0 -318 560 0 560 0 0 323
c0 360 2 369 70 415 29 20 45 23 92 20 103 -7 138 -61 138 -215 l0 -98 22 36
c44 77 146 100 216 51 57 -41 62 -67 62 -311 l0 -221 110 0 c133 0 178 -17
210 -80 25 -50 25 -90 0 -140 -32 -63 -77 -80 -210 -80 l-110 0 0 -192 c0
-164 -3 -198 -18 -228 -53 -107 -211 -107 -264 0 l-18 35 0 -103 c0 -75 -5
-113 -16 -138 -52 -110 -211 -109 -264 1 -19 38 -20 62 -20 333 l0 292 -560 0
-559 0 -3 -304 c-3 -290 -4 -306 -24 -332 -37 -51 -71 -69 -127 -69 -39 0 -61
6 -86 24 -48 35 -61 74 -61 193 l-1 103 -20 -38 c-30 -57 -72 -79 -141 -74
-44 2 -64 9 -84 28 -51 47 -54 64 -54 274 l0 195 -111 0 c-126 0 -165 12 -202
64 -30 42 -31 132 -2 172 39 52 78 64 202 64 l113 0 0 229 c0 220 1 229 23
262 62 94 187 89 255 -11 l22 -33 0 102 c0 109 9 138 53 180 45 42 125 45 183
6z"/>
</g>
</svg>
