<?xml version="1.0" standalone="no"?>
<!DOCTYPE svg PUBLIC "-//W3C//DTD SVG 20010904//EN"
 "http://www.w3.org/TR/2001/REC-SVG-20010904/DTD/svg10.dtd">
<svg version="1.0" xmlns="http://www.w3.org/2000/svg"
 width="512.000000pt" height="512.000000pt" viewBox="0 0 512.000000 512.000000"
 preserveAspectRatio="xMidYMid meet">

<g transform="translate(0.000000,512.000000) scale(0.100000,-0.100000)"
fill="#000000" stroke="none">
<path d="M2375 4469 c-152 -21 -334 -78 -474 -148 -261 -132 -515 -394 -641
-663 -94 -202 -134 -376 -134 -593 -1 -134 2 -161 27 -249 91 -329 336 -736
749 -1247 138 -171 383 -450 524 -597 133 -138 135 -138 263 -5 547 570 1001
1184 1191 1611 94 209 126 361 116 542 -20 359 -164 679 -421 935 -209 210
-459 344 -746 400 -100 20 -356 28 -454 14z m355 -324 c414 -62 764 -360 894
-759 168 -515 -63 -1084 -542 -1334 -161 -83 -294 -120 -478 -129 -259 -13
-535 77 -744 245 -519 415 -561 1190 -90 1662 254 254 605 369 960 315z"/>
<path d="M2467 3990 c-104 -27 -207 -106 -253 -196 -24 -46 -39 -60 -87 -86
-139 -75 -218 -227 -203 -391 l6 -70 -44 -47 c-135 -145 -163 -359 -70 -542
34 -67 135 -168 202 -202 141 -71 276 -72 445 -1 16 7 17 -2 17 -104 l0 -111
-135 0 c-131 0 -137 -1 -160 -25 -33 -32 -33 -78 0 -110 l24 -25 351 0 351 0
24 25 c16 15 25 36 25 55 0 19 -9 40 -25 55 -23 24 -29 25 -160 25 l-135 0 0
111 c0 102 1 111 18 104 82 -35 123 -46 185 -51 249 -20 474 161 510 412 20
137 -25 284 -118 382 l-45 49 6 70 c15 164 -64 316 -203 391 -48 26 -63 40
-87 86 -60 116 -186 195 -324 202 -42 2 -94 -1 -115 -6z m148 -575 c21 -20 25
-34 25 -85 l0 -60 67 45 c91 61 146 60 172 -3 21 -50 2 -75 -124 -158 l-115
-77 0 -304 c0 -166 -3 -303 -7 -303 -3 0 -21 11 -40 26 l-33 25 -33 -25 c-19
-15 -37 -26 -40 -26 -4 0 -7 83 -7 183 l0 184 -115 77 c-126 83 -145 108 -124
158 26 63 81 64 172 3 l67 -45 0 180 c0 179 0 181 25 205 15 16 36 25 55 25
19 0 40 -9 55 -25z"/>
<path d="M1964 935 c-77 -7 -192 -20 -255 -30 -191 -27 -399 -82 -399 -105 0
-19 164 -67 325 -94 452 -78 1187 -86 1710 -20 196 24 409 73 455 104 13 9 13
11 0 20 -73 49 -404 108 -739 132 l-164 12 -96 -102 c-109 -115 -155 -141
-242 -142 -84 0 -138 32 -242 145 l-88 95 -62 -1 c-34 -1 -125 -7 -203 -14z"/>
</g>
</svg>
